<svg xmlns="http://www.w3.org/2000/svg" viewBox="12 10 180 180">
  <path d="M28 82 102 21l74 61v98H28Z" fill="#fff" stroke="#2a6b84" stroke-width="4.5" stroke-linejoin="round" />
  <path d="M34 156v-46l11.5-9.9V81h12v8.8L80.5 70l19.5 16.8V156Z" fill="#2a6b84" />
  <path d="M166 156v-47l-9-7.8V83h-12v7.8L120 69l-20 17.4V156Z" fill="#f5ca3d" />
  <path d="M74 156v-46.6L100 86l27 24.3V156Z" fill="#2a6b53" />
  <g fill="#fef8ef">
    <path d="M57 103.5c-2.4 4.6-3.6 9.4-3.6 15.5h7.2c0-6.1-1.2-10.9-3.6-15.5Z" />
    <circle cx="57" cy="122" r="4.5" />
    <path d="M92 105.5c-5 0-9.5 3-12 8 4-2 8-2.7 12-2.5Z" />
    <rect x="90" y="105" width="28" height="9" rx="1.5" />
    <rect x="92" y="112" width="12" height="5" rx="1" />
    <rect x="95.5" y="116" width="5" height="27" />
    <rect x="94" y="141" width="8" height="15" rx="1" />
    <rect x="136" y="105" width="18" height="22" rx="2" />
    <rect x="140" y="126.5" width="10" height="5.5" />
    <rect x="142.3" y="131" width="5.4" height="25" rx="2.7" />
  </g>
  <g fill="none" stroke-linecap="round">
    <path d="M57 109v10" stroke="#2a6b84" stroke-width="1.2" />
    <path d="M55 124c-2.8 10-5.8 20.5-8.5 31M59 124c2.8 10 5.8 20.5 8.5 31" stroke="#fef8ef" stroke-width="3.6" />
    <path d="M104 106v7" stroke="#2a6b53" stroke-width="1.2" />
    <path d="M140.5 106.5v8M145 106.5v8M149.5 106.5v8" stroke="#f5ca3d" stroke-width="1.1" />
  </g>
</svg>
